<svg width="161" height="91" fill="none" xmlns="http://www.w3.org/2000/svg"><g clip-path="url(#a)" stroke="#7BB332" stroke-width="3"><path d="M47 43.993v35.014M14 39.994v39.012M25 20.996v58.008M36 14.996v64.008"/></g><g clip-path="url(#b)"><path d="M67.95 56.094V76h-2.64V56.094h2.64Zm12.017 0-8.272 9.283-4.648 4.826-.438-2.816 3.5-3.856 6.686-7.437h3.172ZM77.424 76l-7.37-9.707 1.573-2.092L80.568 76h-3.144Zm13.808-2.53v-7.614c0-.584-.118-1.09-.355-1.518a2.327 2.327 0 0 0-1.04-1.012c-.464-.237-1.038-.355-1.722-.355-.638 0-1.198.11-1.681.328-.474.219-.848.506-1.121.861a1.887 1.887 0 0 0-.397 1.149h-2.53c0-.53.137-1.053.41-1.573.274-.52.666-.989 1.177-1.408a5.877 5.877 0 0 1 1.859-1.012c.73-.255 1.54-.382 2.434-.382 1.075 0 2.023.182 2.843.547a4.26 4.26 0 0 1 1.942 1.654c.474.729.71 1.645.71 2.748v6.89c0 .493.042 1.017.124 1.573.09.556.223 1.034.396 1.435V76h-2.638c-.128-.292-.228-.679-.301-1.162a9.375 9.375 0 0 1-.11-1.367Zm.438-6.439.027 1.778h-2.556c-.72 0-1.363.059-1.928.177-.565.11-1.04.278-1.422.506a2.405 2.405 0 0 0-.875.861c-.2.338-.3.734-.3 1.19 0 .465.104.889.314 1.271.21.383.524.689.943.917.428.218.953.328 1.572.328.775 0 1.459-.165 2.051-.493.593-.328 1.062-.729 1.408-1.203.356-.474.547-.934.575-1.38l1.08 1.216c-.064.383-.237.807-.52 1.272a6.08 6.08 0 0 1-1.135 1.34c-.465.419-1.02.77-1.668 1.052-.638.274-1.358.41-2.16.41-1.002 0-1.882-.195-2.638-.587-.748-.392-1.331-.917-1.75-1.573a4.161 4.161 0 0 1-.616-2.228c0-.793.155-1.49.465-2.092.31-.61.757-1.117 1.34-1.518.583-.41 1.285-.72 2.105-.93.82-.209 1.737-.314 2.749-.314h2.939Zm14.684 5.045a2.13 2.13 0 0 0-.247-1.011c-.155-.32-.478-.607-.97-.862-.483-.264-1.213-.492-2.188-.684a17.302 17.302 0 0 1-2.228-.615c-.657-.237-1.217-.524-1.682-.861a3.614 3.614 0 0 1-1.053-1.19c-.246-.455-.369-.988-.369-1.6 0-.582.128-1.134.383-1.653.264-.52.633-.98 1.107-1.381a5.38 5.38 0 0 1 1.737-.944c.674-.227 1.426-.341 2.256-.341 1.185 0 2.196.21 3.035.629.838.419 1.481.98 1.927 1.681.447.693.67 1.463.67 2.31h-2.529c0-.41-.123-.806-.369-1.189-.237-.392-.588-.715-1.053-.97-.455-.256-1.016-.383-1.681-.383-.702 0-1.272.11-1.709.328-.429.21-.743.478-.944.806a2.035 2.035 0 0 0-.287 1.04c0 .273.046.52.137.738.1.21.273.405.519.588.246.173.593.337 1.039.492.447.155 1.017.31 1.709.465 1.213.273 2.211.601 2.995.984.783.383 1.367.852 1.75 1.408.382.556.574 1.23.574 2.024a3.87 3.87 0 0 1-.41 1.777 3.951 3.951 0 0 1-1.162 1.395c-.502.382-1.103.683-1.805.902-.693.21-1.472.314-2.338.314-1.303 0-2.406-.232-3.309-.697-.902-.465-1.586-1.066-2.05-1.804-.465-.739-.698-1.518-.698-2.338h2.543c.037.692.237 1.244.602 1.654.364.4.811.688 1.34.861a5.274 5.274 0 0 0 1.572.246c.693 0 1.271-.09 1.736-.273.474-.182.834-.433 1.08-.752.246-.32.37-.684.37-1.094ZM112.191 55h2.543v18.129L114.516 76h-2.325V55Zm12.538 13.48v.288c0 1.075-.128 2.073-.383 2.994-.256.911-.629 1.704-1.121 2.379a5.231 5.231 0 0 1-1.805 1.572c-.711.374-1.527.56-2.447.56-.939 0-1.764-.16-2.475-.478a4.86 4.86 0 0 1-1.777-1.408c-.483-.611-.871-1.35-1.162-2.215-.283-.866-.479-1.841-.588-2.926v-1.258c.109-1.094.305-2.073.588-2.94.291-.865.679-1.603 1.162-2.214a4.679 4.679 0 0 1 1.777-1.408c.702-.328 1.518-.492 2.447-.492.93 0 1.755.182 2.475.547.72.355 1.322.865 1.805 1.53.492.666.865 1.464 1.121 2.393.255.92.383 1.946.383 3.077Zm-2.543.288v-.287c0-.739-.069-1.431-.206-2.079a5.36 5.36 0 0 0-.656-1.722 3.27 3.27 0 0 0-1.189-1.176c-.492-.292-1.099-.438-1.819-.438-.638 0-1.194.11-1.668.328a3.613 3.613 0 0 0-1.189.89 4.73 4.73 0 0 0-.807 1.257c-.2.465-.351.948-.451 1.45v3.294c.146.638.383 1.253.711 1.846a4.298 4.298 0 0 0 1.34 1.435c.565.374 1.262.561 2.092.561.683 0 1.267-.137 1.75-.41.492-.283.888-.67 1.189-1.162.31-.493.538-1.062.684-1.71.146-.646.219-1.34.219-2.077Zm8.49-7.561V76h-2.543V61.207h2.543Zm-2.735-3.924c0-.41.123-.756.37-1.039.255-.282.628-.424 1.121-.424.483 0 .852.142 1.107.424.264.283.397.629.397 1.04 0 .391-.133.728-.397 1.01-.255.274-.624.411-1.107.411-.493 0-.866-.137-1.121-.41a1.485 1.485 0 0 1-.37-1.012Zm17.815 16.639V76h-10.76v-2.078h10.76Zm-.397-10.924L135.57 76h-1.545v-1.86l9.721-12.933h1.613v1.791Zm-1.121-1.791v2.092h-10.103v-2.092h10.103Z" fill="#F2F2F2"/></g><defs><clipPath id="a"><path fill="#fff" transform="translate(12 12)" d="M0 0h39v67H0z"/></clipPath><clipPath id="b"><path fill="#fff" transform="translate(63 55)" d="M0 0h86v24H0z"/></clipPath></defs></svg>