<svg xmlns="http://www.w3.org/2000/svg" viewBox="0 0 128 128" id="Exam">
  <path d="m24.948 92.901-2.864 10.602c-.695 2.572 3.168 3.604 3.861 1.043l2.864-10.602c.69-2.55-3.171-3.597-3.861-1.043z" fill="#7bb332" class="color000000 svgShape"></path>
  <path d="M122 116.998H8.618l13.909-51h3.675c-2.802 4.929-1.07 10.265 2.661 13.457l-2.12 7.908c-.385 1.451.927 2.837 2.425 2.456l13.524-3.443a1.983 1.983 0 0 0 1.083-.549l3.142-3.116c2.871 3.359 7.662 5.232 12.688 3.581 2.477 4.264 6.331 6.25 10.525 6.25 3.782 0 7.472-1.831 9.71-5.055 5.513.627 12.306-2.862 14.201-5.136 5.428 2.395 9.885 5.167 27.934 5.38h.023c2.63 0 2.652-3.97.023-4-26.536-.31-27.947-8.158-40.745-10.736l-.013-.001c-4.763-.941-21.243.517-28.41-.234-3.871-.932-6.474-4.649-5.972-8.486v-.018c.515-3.143 2.508-5.278 3.62-5.556 0 0 18.591-1.257 46.216-4.246 2.629-.285 2.197-4.25-.43-3.977l-18.94 2.049c9.497-9.42 14.288-14.183 15.3-15.187 9.64 2.47 29.349 9.349 29.349 9.349 2.241 0 2.782-3.166.646-3.894-7.534-2.57-16.296-5.915-26.697-8.727l13.837-13.725c.919-.919.7-2.195-.026-2.865L99.382 7.553c-.781-.752-2.043-.721-2.794.029L77.293 26.829c-4.494-1.811-10.79-2.627-12.669-2.627-8.886 0-20.746 23.37-27.708 31.673-1.669 1.989-4.674 3.721-7.356 6.123H21c-.902 0-1.692.604-1.93 1.474l-15 55A2.001 2.001 0 0 0 6 120.998h116c2.642 0 2.646-4 0-4zM59.554 82.009l-.003.002-.005.002a7.863 7.863 0 0 1-9.643-1.949l3.304-3.277c1.295.063 4.075.128 10.377.195a7.809 7.809 0 0 1-4.03 5.027zm-18.191.578L31.49 85.1l2.587-9.653 1.197-1.188 7.258 7.167-1.169 1.161zm1.572-15.862c.454 3.326 2.741 7.132 5.361 8.985l-2.924 2.9-7.258-7.167c5.612-5.567 4.147-4.147 4.821-4.718zm20.223 17.719a11.723 11.723 0 0 0 4.508-7.42l8.713.087c.986 2.283 1.854 4.975.721 7.191-3.109 5.678-10.781 5.592-13.942.142zm18.392-.886c.311-2.015-.172-4.571-.847-6.491 1.304-.023 7.994 2.93 9.308 3.503-2.3 1.658-5.803 2.869-8.461 2.988zm16.48-71.765 7.482 7.155c-20.959 20.79-13.537 13.44-34.503 34.235-2.414.12-9.851.507-15.451.958 5.692-5.647-3.377 3.388 42.472-42.348zM39.98 58.445c5.917-7.055 18.802-30.243 24.644-30.243 1.503 0 5.937.608 9.539 1.75C50.42 53.637 63.611 40.519 30.878 72.987c-.503.498-.604 1.201-.785 1.877-.964-1.381-1.855-3.502-.863-5.975 1.729-4.311 7.621-6.71 10.75-10.444z" fill="#7bb332" class="color000000 svgShape"></path>
</svg>
