<svg xmlns="http://www.w3.org/2000/svg" fill-rule="evenodd" stroke-linejoin="round" stroke-miterlimit="2" clip-rule="evenodd" viewBox="0 0 96 96"><path fill="none" d="M0 0h96v96H0z"/><path d="M13.426 50.002a3.5 3.5 0 0 0-3.5-3.5H4a3.503 3.503 0 0 0-3.5 3.5v27.554a1.5 1.5 0 0 0 1.5 1.5h9.926a1.5 1.5 0 0 0 1.5-1.5V50.002zm17.176-4.987a3.5 3.5 0 0 0-3.5-3.5h-5.926a3.5 3.5 0 0 0-3.5 3.5v32.541a1.5 1.5 0 0 0 1.5 1.5h9.926a1.5 1.5 0 0 0 1.5-1.5V45.015zm11.676 31.041h-4.425V38.049a.5.5 0 0 1 .5-.5h5.925a.5.5 0 0 1 .5.5v5.593a1.5 1.5 0 0 0 3 0v-5.593a3.497 3.497 0 0 0-3.5-3.5h-5.925a3.502 3.502 0 0 0-3.5 3.5v39.507a1.5 1.5 0 0 0 1.5 1.5h5.925a1.5 1.5 0 0 0 0-3zM27.602 45.015v31.041h-6.926V45.015a.5.5 0 0 1 .5-.5h5.926a.5.5 0 0 1 .5.5zm-17.176 4.987v26.054H3.5V50.002a.503.503 0 0 1 .5-.5h5.926a.5.5 0 0 1 .5.5zm44.603-11.195V24.314a.5.5 0 0 1 .5-.5h5.926a.498.498 0 0 1 .5.5v12.493a1.5 1.5 0 0 0 3 0V24.314a3.5 3.5 0 0 0-3.5-3.5h-5.926a3.5 3.5 0 0 0-3.5 3.5v14.493a1.5 1.5 0 0 0 3 0zm-27.932-15.23-14.791 3.222a1.501 1.501 0 0 0 .639 2.932l14.79-3.223a1.5 1.5 0 1 0-.638-2.931zM50.46 9.544 36.094 19.631a1.5 1.5 0 0 0 1.723 2.455l14.367-10.087a1.5 1.5 0 1 0-1.724-2.455z" fill="#7bb332" class="color000000 svgShape"/><path d="M55.67 14.532a6.816 6.816 0 0 0 6.813-6.813A6.816 6.816 0 0 0 55.67.906a6.816 6.816 0 0 0-6.813 6.813 6.816 6.816 0 0 0 6.813 6.813zm0-3a3.815 3.815 0 0 1-3.813-3.813 3.815 3.815 0 0 1 3.813-3.813 3.815 3.815 0 0 1 3.813 3.813 3.815 3.815 0 0 1-3.813 3.813zM32.608 30.724a6.816 6.816 0 0 0 6.813-6.813 6.816 6.816 0 0 0-6.813-6.813 6.816 6.816 0 0 0-6.813 6.813 6.816 6.816 0 0 0 6.813 6.813zm0-3a3.815 3.815 0 0 1-3.813-3.813 3.815 3.815 0 0 1 3.813-3.813 3.815 3.815 0 0 1 3.813 3.813 3.815 3.815 0 0 1-3.813 3.813zM7.313 36.235a6.815 6.815 0 0 0 6.812-6.812 6.815 6.815 0 0 0-6.812-6.813A6.816 6.816 0 0 0 .5 29.423a6.816 6.816 0 0 0 6.813 6.812zm0-3A3.814 3.814 0 0 1 3.5 29.423a3.814 3.814 0 0 1 3.813-3.813 3.814 3.814 0 0 1 0 7.625zm69.291 50.729 9.55 9.55a5.393 5.393 0 0 0 7.627 0l.139-.14a5.392 5.392 0 0 0 0-7.627L81.157 72.984a1.501 1.501 0 0 0-2.121 2.122l12.763 12.762c.935.935.935 2.45 0 3.385l-.14.14a2.394 2.394 0 0 1-3.384 0l-9.55-9.55a1.5 1.5 0 1 0-2.121 2.121z" fill="#7bb332" class="color000000 svgShape"/><path d="M62.817 40.339c-12.26 0-22.214 9.954-22.214 22.215 0 12.26 9.954 22.214 22.214 22.214 12.26 0 22.214-9.954 22.214-22.214 0-12.261-9.954-22.215-22.214-22.215Zm0 3c10.605 0 19.214 8.61 19.214 19.215 0 10.604-8.609 19.214-19.214 19.214-10.605 0-19.214-8.61-19.214-19.214 0-10.605 8.609-19.215 19.214-19.215Zm-8.295 10.58a11.934 11.934 0 0 1 8.295-3.342c6.61 0 11.976 5.367 11.976 11.977S69.427 74.53 62.817 74.53c-6.61 0-11.976-5.366-11.976-11.976 0-1.616.32-3.157.901-4.563a1.5 1.5 0 0 0-2.773-1.146 14.92 14.92 0 0 0-1.128 5.709c0 8.266 6.71 14.976 14.976 14.976 8.266 0 14.976-6.71 14.976-14.976 0-8.266-6.71-14.977-14.976-14.977a14.923 14.923 0 0 0-10.374 4.179 1.5 1.5 0 0 0 2.079 2.163Z" fill="#7bb332" class="color000000 svgShape"/></svg>