<svg xmlns="http://www.w3.org/2000/svg" viewBox="0 0 32 32"><path d="M16.354 7.354c-.196.195-.512.195-.708 0a.5.5 0 0 0-.707.707c.293.292.677.438 1.061.438s.768-.146 1.06-.438a.5.5 0 1 0-.706-.707zm-8 0c-.196.195-.512.195-.708 0a.5.5 0 0 0-.707.707c.293.292.677.438 1.061.438s.768-.146 1.06-.438a.5.5 0 1 0-.706-.707z" fill="#7bb332" class="color000000 svgShape"/><path d="M26.039 9.832A3.49 3.49 0 0 0 27.5 7c0-1.93-1.57-3.5-3.5-3.5S20.5 5.07 20.5 7c0 1.175.586 2.21 1.477 2.846a6.403 6.403 0 0 0-1.957 1.056 6.486 6.486 0 0 0-1.981-1.07A3.49 3.49 0 0 0 19.5 7c0-1.93-1.57-3.5-3.5-3.5S12.5 5.07 12.5 7c0 1.174.586 2.21 1.477 2.845A6.391 6.391 0 0 0 12 10.917a6.402 6.402 0 0 0-1.977-1.071A3.492 3.492 0 0 0 11.5 7c0-1.93-1.57-3.5-3.5-3.5S4.5 5.07 4.5 7a3.49 3.49 0 0 0 1.461 2.832C3.374 10.69 1.5 13.13 1.5 16a.5.5 0 0 0 .5.5h12a.5.5 0 1 0 0-1h-3.477a5.458 5.458 0 0 1 1.812-3.59A5.45 5.45 0 0 1 16 10.5c2.864 0 5.225 2.2 5.478 5H18a.5.5 0 1 0 0 1h12a.5.5 0 0 0 .5-.5c0-2.871-1.874-5.31-4.461-6.168ZM5.5 7c0-1.378 1.122-2.5 2.5-2.5s2.5 1.122 2.5 2.5S9.378 9.5 8 9.5 5.5 8.378 5.5 7Zm4.027 8.5H2.522c.254-2.8 2.614-5 5.478-5 1.179 0 2.302.397 3.238 1.09a6.454 6.454 0 0 0-1.711 3.91ZM13.5 7c0-1.378 1.122-2.5 2.5-2.5 1.379 0 2.5 1.122 2.5 2.5S17.379 9.5 16 9.5A2.503 2.503 0 0 1 13.5 7Zm8 0c0-1.378 1.121-2.5 2.5-2.5s2.5 1.122 2.5 2.5-1.121 2.5-2.5 2.5-2.5-1.122-2.5-2.5Zm.975 8.5a6.468 6.468 0 0 0-1.713-3.91A5.428 5.428 0 0 1 24 10.5c2.864 0 5.225 2.2 5.478 5h-7.003Z" fill="#7bb332" class="color000000 svgShape"/><path d="M24.354 7.354c-.196.195-.512.195-.708 0a.5.5 0 0 0-.707.707c.292.292.677.438 1.061.438s.769-.146 1.06-.438a.5.5 0 1 0-.706-.707zM26.5 23c0-1.93-1.57-3.5-3.5-3.5s-3.5 1.57-3.5 3.5 1.57 3.5 3.5 3.5c.523 0 1.016-.124 1.462-.33l2.184 2.184a.498.498 0 0 0 .708 0 .5.5 0 0 0 0-.708l-2.041-2.04A3.478 3.478 0 0 0 26.5 23zm-6 0c0-1.378 1.121-2.5 2.5-2.5s2.5 1.122 2.5 2.5-1.121 2.5-2.5 2.5-2.5-1.122-2.5-2.5zM2 25.5h15.77a.5.5 0 1 0 0-1H2.5v-3h15.27a.5.5 0 1 0 0-1H2a.5.5 0 0 0-.5.5v4a.5.5 0 0 0 .5.5zm28-5h-1.77a.5.5 0 1 0 0 1h1.27v3h-1.27a.5.5 0 1 0 0 1H30a.5.5 0 0 0 .5-.5v-4a.5.5 0 0 0-.5-.5z" fill="#7bb332" class="color000000 svgShape"/><circle cx="16" cy="16" r=".5" fill="#7bb332" class="color000000 svgShape"/></svg>