<?xml version="1.0" encoding="UTF-8"?>
<svg version="1.1" xmlns="http://www.w3.org/2000/svg" width="128" height="128">
<path d="M0 0 C1.04470459 0.07822998 2.08940918 0.15645996 3.16577148 0.23706055 C4.64025757 0.36334839 4.64025757 0.36334839 6.14453125 0.4921875 C7.45901245 0.60216064 7.45901245 0.60216064 8.80004883 0.71435547 C11.32448853 1.1485622 13.04611421 1.72113346 15.1875 3.125 C16.4375 6.25 16.4375 6.25 17.1875 9.125 C17.89358398 8.88789307 18.59966797 8.65078613 19.32714844 8.40649414 C22.53007234 7.33191896 25.73377516 6.2596848 28.9375 5.1875 C30.04867187 4.81431641 31.15984375 4.44113281 32.3046875 4.05664062 C33.37460938 3.69892578 34.44453125 3.34121094 35.546875 2.97265625 C36.53139648 2.64273682 37.51591797 2.31281738 38.53027344 1.97290039 C43.24135671 0.46963025 47.18967702 -0.40108663 52.1875 0.125 C55.1875 2.25 55.1875 2.25 57.1875 5.125 C57.09423828 8.12353516 57.09423828 8.12353516 56.1875 11.125 C54.27685547 12.75537109 54.27685547 12.75537109 51.6796875 14.0234375 C50.68163086 14.51811523 49.68357422 15.01279297 48.65527344 15.52246094 C47.5109082 16.05129883 46.36654297 16.58013672 45.1875 17.125 C44.56153931 17.4178186 43.93557861 17.71063721 43.29064941 18.0123291 C39.06529958 19.98377792 34.81388126 21.89053589 30.54541016 23.76660156 C28.31921403 24.74704307 26.0990198 25.74025041 23.87890625 26.734375 C0.53624061 37.09847702 0.53624061 37.09847702 -8.8125 36 C-10.56820312 35.81244141 -10.56820312 35.81244141 -12.359375 35.62109375 C-15.6052943 35.15476824 -18.83096216 34.61868176 -22.0625 34.0625 C-30.28237416 32.68742811 -38.50833719 32.95723914 -46.8125 33.125 C-47.1425 34.115 -47.4725 35.105 -47.8125 36.125 C-49.60383978 36.17891993 -51.39563899 36.21775571 -53.1875 36.25 C-54.18523438 36.27320313 -55.18296875 36.29640625 -56.2109375 36.3203125 C-58.8125 36.125 -58.8125 36.125 -60.8125 34.125 C-60.99963986 31.69932881 -61.06835278 29.39002333 -61.04296875 26.96484375 C-61.04251053 26.25977188 -61.04205231 25.55470001 -61.0415802 24.82826233 C-61.03855863 23.33788368 -61.0306751 21.84750816 -61.01831055 20.35717773 C-61.00004456 18.06808367 -60.99780091 15.77939373 -60.99804688 13.49023438 C-60.99313206 12.04426731 -60.9873039 10.59830301 -60.98046875 9.15234375 C-60.97935593 8.46381821 -60.9782431 7.77529266 -60.97709656 7.06590271 C-60.92855499 2.24105499 -60.92855499 2.24105499 -59.8125 1.125 C-57.8562407 1.02572714 -55.89627091 0.99530271 -53.9375 1 C-52.86757813 0.99742188 -51.79765625 0.99484375 -50.6953125 0.9921875 C-47.8125 1.125 -47.8125 1.125 -44.8125 2.125 C-42.59154958 1.70820747 -40.38437438 1.21672563 -38.1875 0.6875 C-25.46708029 -2.06815402 -12.88163101 -0.9903013 0 0 Z M-36.875 4.125 C-39.824375 4.785 -42.77375 5.445 -45.8125 6.125 C-45.8125 13.715 -45.8125 21.305 -45.8125 29.125 C-44.306875 29.063125 -42.80125 29.00125 -41.25 28.9375 C-33.85735917 28.91109771 -26.65312146 29.96748005 -19.35131836 31.05786133 C-16.50848508 31.46696679 -13.66784786 31.81561694 -10.8125 32.125 C-9.94254395 32.22554687 -9.07258789 32.32609375 -8.17626953 32.4296875 C-0.28710414 32.91975213 6.10564692 30.18347278 13.17596436 27.02111816 C15.2032627 26.11797788 17.24143628 25.24595456 19.28564453 24.38183594 C22.75383486 22.91302374 26.20992998 21.41834125 29.66137695 19.91064453 C31.77761896 18.98795807 33.89753012 18.074058 36.01757812 17.16015625 C37.38825216 16.56303073 38.75870345 15.96539357 40.12890625 15.3671875 C41.06181236 14.96703934 41.06181236 14.96703934 42.01356506 14.55880737 C46.07472592 12.77030291 49.57306824 10.66382708 53.1875 8.125 C52.6925 6.145 52.6925 6.145 52.1875 4.125 C44.79814987 3.72291011 39.03448091 5.06740799 32.0625 7.4375 C31.11246094 7.74623047 30.16242188 8.05496094 29.18359375 8.37304688 C23.05831304 10.39073643 17.00570821 12.42519247 11.4609375 15.76953125 C6.64387919 17.76418427 1.97927753 17.69583083 -3.1875 17.8125 C-4.20972656 17.84666016 -5.23195312 17.88082031 -6.28515625 17.91601562 C-8.79416114 17.99808588 -11.30283465 18.06736876 -13.8125 18.125 C-13.8125 17.135 -13.8125 16.145 -13.8125 15.125 C-11.87697266 15.17720703 -11.87697266 15.17720703 -9.90234375 15.23046875 C-8.18490894 15.25862342 -6.46745993 15.28592177 -4.75 15.3125 C-3.90244141 15.33763672 -3.05488281 15.36277344 -2.18164062 15.38867188 C3.38742074 15.45317838 7.2936965 14.86397225 12.1875 12.125 C13.41750198 9.64929495 13.41750198 9.64929495 13.1875 7.125 C8.71977884 2.65727884 0.96846551 3.5269051 -5 3.0625 C-6.09892578 2.97162109 -7.19785156 2.88074219 -8.33007812 2.78710938 C-18.34797731 1.99260693 -27.05478305 1.87143627 -36.875 4.125 Z M-56.8125 4.125 C-56.8125 13.695 -56.8125 23.265 -56.8125 33.125 C-54.8325 33.125 -52.8525 33.125 -50.8125 33.125 C-49.50588505 32.04391551 -49.50588505 32.04391551 -49.69897461 29.44116211 C-49.70421143 28.27335205 -49.70944824 27.10554199 -49.71484375 25.90234375 C-49.71806641 24.64228516 -49.72128906 23.38222656 -49.72460938 22.08398438 C-49.73296597 20.74348891 -49.74143093 19.40299412 -49.75 18.0625 C-49.7550134 16.71810058 -49.75957658 15.3736994 -49.76367188 14.02929688 C-49.77550512 10.72782059 -49.79199029 7.42643197 -49.8125 4.125 C-52.1225 4.125 -54.4325 4.125 -56.8125 4.125 Z " fill="#86C231" transform="translate(65.8125,90.875)"/>
<path d="M0 0 C6.92311299 3.77743998 11.19731174 8.00063816 13.5625 15.6875 C14.59364581 26.25674452 12.20641889 33.94151953 6.1875 42.75 C3.00419957 47.45398535 1.87747666 51.30586543 1.39453125 56.9375 C0.8125 59.25 0.8125 59.25 -1.11328125 61.0625 C-3.1875 62.25 -3.1875 62.25 -5.1875 62.25 C-5.31125 63.054375 -5.435 63.85875 -5.5625 64.6875 C-5.76875 65.533125 -5.975 66.37875 -6.1875 67.25 C-8.65119532 68.48184766 -10.3769501 68.41732342 -13.125 68.4375 C-14.00027344 68.45167969 -14.87554687 68.46585937 -15.77734375 68.48046875 C-18.1875 68.25 -18.1875 68.25 -21.1875 66.25 C-21.1875 64.93 -21.1875 63.61 -21.1875 62.25 C-21.991875 61.940625 -22.79625 61.63125 -23.625 61.3125 C-26.1875 60.25 -26.1875 60.25 -27.1875 59.25 C-27.35807196 57.70876053 -27.52375 56.16697919 -27.6875 54.625 C-28.72995878 48.38653571 -31.4871409 43.83826411 -34.91210938 38.64208984 C-39.03643224 32.31074297 -41.09333384 25.89297306 -40.1875 18.25 C-38.8650814 12.17513953 -36.75237531 7.61199196 -32.1875 3.25 C-22.90360079 -2.41844726 -10.26589722 -4.42944804 0 0 Z M-33.91015625 11.34765625 C-37.12609623 16.13714484 -36.71582564 21.71374255 -36.1875 27.25 C-34.48955542 33.22676493 -31.02685334 38.0524822 -27.515625 43.09765625 C-25.67340377 46.0831383 -24.91427694 48.83414837 -24.1875 52.25 C-21.2175 52.25 -18.2475 52.25 -15.1875 52.25 C-15.07917831 50.16781638 -15.00176459 48.08400871 -14.9375 46 C-14.89109375 44.83984375 -14.8446875 43.6796875 -14.796875 42.484375 C-15.26667027 38.59447018 -16.31932827 37.77051455 -19.1875 35.25 C-20.4375 31.5 -20.4375 31.5 -21.1875 28.25 C-20.1975 27.92 -19.2075 27.59 -18.1875 27.25 C-18.084375 28.19875 -17.98125 29.1475 -17.875 30.125 C-17.50210705 33.54107501 -17.50210705 33.54107501 -14.1875 35.25 C-13.1975 32.28 -12.2075 29.31 -11.1875 26.25 C-9.5375 26.25 -7.8875 26.25 -6.1875 26.25 C-5.89192608 31.27475668 -6.1592621 34.17352591 -9.1875 38.25 C-9.8475 38.91 -10.5075 39.57 -11.1875 40.25 C-11.43089551 43.14883083 -11.43089551 43.14883083 -11.3125 46.375 C-11.28542969 48.01855469 -11.28542969 48.01855469 -11.2578125 49.6953125 C-11.23460938 50.53835937 -11.21140625 51.38140625 -11.1875 52.25 C-8.2175 52.25 -5.2475 52.25 -2.1875 52.25 C-1.836875 50.97125 -1.48625 49.6925 -1.125 48.375 C0.16985508 44.42195685 1.92880932 41.42091596 4.375 38.0625 C9.48973604 31.0270403 10.8213161 24.91320825 9.8125 16.25 C7.86084938 10.31742568 3.42385145 6.18798817 -2 3.27734375 C-13.89856088 -1.88029857 -25.85996702 1.47907134 -33.91015625 11.34765625 Z M-9.1875 29.25 C-9.5175 30.57 -9.8475 31.89 -10.1875 33.25 C-9.5275 31.93 -8.8675 30.61 -8.1875 29.25 C-8.5175 29.25 -8.8475 29.25 -9.1875 29.25 Z M-11.1875 33.25 C-10.1875 35.25 -10.1875 35.25 -10.1875 35.25 Z M-24.1875 55.25 C-23.8575 56.24 -23.5275 57.23 -23.1875 58.25 C-16.5875 58.25 -9.9875 58.25 -3.1875 58.25 C-2.8575 57.26 -2.5275 56.27 -2.1875 55.25 C-9.4475 55.25 -16.7075 55.25 -24.1875 55.25 Z M-18.1875 62.25 C-17.8575 62.91 -17.5275 63.57 -17.1875 64.25 C-14.5475 64.25 -11.9075 64.25 -9.1875 64.25 C-8.8575 63.59 -8.5275 62.93 -8.1875 62.25 C-11.4875 62.25 -14.7875 62.25 -18.1875 62.25 Z " fill="#88C331" transform="translate(77.1875,17.75)"/>
<path d="M0 0 C3.13506611 0.33589994 4.025249 1.02665172 6.25 3.375 C8 6 8 6 8 9 C4.21304827 8.4590069 2.37254028 6.96567536 0 4 C0 2.68 0 1.36 0 0 Z " fill="#8CC530" transform="translate(36,11)"/>
<path d="M0 0 C0.99 0 1.98 0 3 0 C2.64598897 3.18609925 2.16972964 4.79066678 0.125 7.3125 C-2 9 -2 9 -5 9 C-4.42636089 5.12793601 -2.65894107 2.81534937 0 0 Z " fill="#87C231" transform="translate(89,11)"/>
<path d="M0 0 C0.99 0.33 1.98 0.66 3 1 C3 3.97 3 6.94 3 10 C1.68 10 0.36 10 -1 10 C-1.02689216 8.52093108 -1.04634621 7.04172517 -1.0625 5.5625 C-1.07410156 4.73878906 -1.08570313 3.91507812 -1.09765625 3.06640625 C-1 1 -1 1 0 0 Z " fill="#86C132" transform="translate(63,1)"/>
<path d="M0 0 C0 0.99 0 1.98 0 3 C-3.3 3.33 -6.6 3.66 -10 4 C-10 2.68 -10 1.36 -10 0 C-3.375 -1.125 -3.375 -1.125 0 0 Z " fill="#89C331" transform="translate(105,37)"/>
<path d="M0 0 C2.97 0.33 5.94 0.66 9 1 C9 2.32 9 3.64 9 5 C5.7 4.67 2.4 4.34 -1 4 C-0.67 2.68 -0.34 1.36 0 0 Z " fill="#8AC331" transform="translate(24,36)"/>
</svg>
