<svg xmlns="http://www.w3.org/2000/svg" width="128" height="128"><path d="M38.063 6.5c5.423.501 10.322.306 15.695-.54C56 6 56 6 57.758 7.23c4.017 5.723 2.249 15.221 1.992 21.895l-.08 2.566C59.246 40.288 56.985 46.71 51 53l-2 1c-.652 2.025-.652 2.025-1 4 5.884.857 11.56 1.125 17.5 1.063l2.492-.014c2.003-.012 4.005-.03 6.008-.049l-1.473-3.219c-2.107-4.936-2.679-9.629-.8-14.77 2.555-4.85 5.868-7.745 10.648-10.261C88.615 28.967 93.352 29.967 99 33c4.23 3.461 6.427 6.758 8 12 .168 6.031-1.231 9.462-4 15h18l1 4 2.438-.063C127 64 127 64 128 65a56.59 56.59 0 0 1 .13 4.045l.009 2.599-.006 2.825.003 2.88c0 2.015-.001 4.029-.006 6.043-.005 3.095 0 6.19.007 9.284 0 1.952-.002 3.903-.004 5.855l.006 2.825-.01 2.6-.002 2.298C128 108 128 108 127 109c-2.073.088-4.148.107-6.223.098l-3.818-.01-4.022-.025A3768.67 3768.67 0 0 1 99 109l-1.999 4c-4.082.255-8.165.475-12.25.688l-3.512.22-3.379.166-3.11.175c-3.183-.288-4.497-1.016-6.749-3.249v-2H58l.313 4.25c.175 2.39.175 2.39-.313 4.75-2.88 2.999-4.56 3.939-8.717 4.518-1.429.026-2.858.03-4.287.013l-2.304.012c-1.6.003-3.202-.005-4.803-.022-2.448-.021-4.893 0-7.34.026-1.56-.003-3.119-.008-4.678-.016l-2.21.025c-3.4-.063-5.335-.316-8.106-2.355-2.101-2.974-2.28-5.619-2.555-9.201l-2.082.105-2.73.082-2.708.106C3 111 3 111 1.374 109.961c-2.1-2.996-1.842-6.097-1.843-9.629l-.023-2.284c-.01-1.596-.013-3.192-.009-4.788.001-2.422-.04-4.84-.085-7.262-.111-14.174-.111-14.174 4.25-19.66C8.278 61.719 13.616 59.35 20 58h4v-4l-1.75-.688C17.325 50.44 14.48 45.404 13 40c-1.511-8.928-1.758-16.613 3.55-24.223C22.536 8.467 28.698 5.5 38.063 6.5ZM53 10c-1.929.361-1.929.361-4 1-1.349.034-2.7.018-4.047-.043l-2.312-.064a302.918 302.918 0 0 1-4.735-.196C32.12 10.567 27.804 11.69 23 15c-4.771 4.762-5.835 9.366-6 16 4.907-1.44 4.907-1.44 8.355-4.98A72.145 72.145 0 0 0 28 20l3.035.656 4.027.844 1.99.434c5.398 1.116 10.557 1.88 15.886.066 2.382-2.31 2.407-2.875 2.5-6.063-.023-3.939-.023-3.939-2.438-5.937ZM30 25l-.875 2.75C26.082 32.404 22.154 33.356 17 35c1.135 6.471 2.99 10.636 8 15 5.197 3.04 10.093 3.941 16 3 5.62-2.053 8.927-5.783 12.098-10.703 1.27-3.236 1.091-6.086 1.027-9.547l-.055-3.828L54 26l-2.965.035c-7.09.049-14-.048-21.035-1.035Zm47.688 15.063c-2.912 5.068-2.464 9.806-1.086 15.363C77.766 58.09 78.606 59.319 81 61c5.328 1.245 9.738 1.252 15 0 3.896-2.955 5.439-6.467 6.48-11.168.358-4.998-1.298-8.134-4.48-11.832-3.56-2.967-6.577-3.48-11.078-3.285-4.011.595-6.295 2.726-9.234 5.347ZM28 57c1.07 5.347 1.8 6.754 6 10 2.583.401 2.583.401 5-1 2.094-1.887 3.382-3.62 5-6l-1-3H28ZM7.062 70.063c-3.094 4.408-3.19 7.48-3.195 12.757l-.003 1.998c0 1.39.001 2.78.006 4.17.005 2.136 0 4.271-.007 6.407 0 1.35.002 2.7.004 4.05l.004 3.735c-.193 2.723-.193 2.723 1.129 3.82h8l1-30h3l.044 3.548c.058 4.335.135 8.67.218 13.005.034 1.878.062 3.756.084 5.634.034 2.696.086 5.39.142 8.086l.02 2.554c.031 2.612.031 2.612.492 6.173 4.787 3.191 10.282 2.333 15.879 2.316 2.114-.003 4.226.02 6.34.045 1.343.003 2.687.003 4.031.002l3.703.01c3.01-.129 3.01-.129 4.957-1.696 1.638-2.52 1.285-4.753 1.09-7.677l-5-1-1-43 5-1v-1c-3.6-.327-5.416-.404-8.438 1.688-1.826 2.186-1.826 2.186-1.374 4.75L44 72c.75 2.625.75 2.625 1 5l-1.522 1.392c-1.704 1.48-1.704 1.48-1.432 3.534l.563 2.172.55 2.416.591 2.549c1.749 8.65 1.749 8.65-.098 13.414C41.91 104.882 40.175 106.98 38 109c-4.529-.609-4.529-.609-6.582-2.313-5.188-7.115-3.66-13.405-2.418-21.75.327-1.98.658-3.96 1-5.937l-3-2c.628-2.929 1.586-5.361 3-8-3.145-4.793-3.145-4.793-8.313-6.625-5.951 1.009-10.627 3.068-14.625 7.688ZM60 64v33l26 1V82l-4-1-.813-3.438L80 74l-3-1c-1-2-1-2-1-9H60Zm42 0-.25 3.75c-.498 4.048-1.611 5.573-4.75 8.25l-1.563 2.688C94 81 94 81 91 82v16l26-1V64h-15Zm-22 2v4h18v-4H80Zm-27 3v35l28 1 1 3c2.124.08 4.25.14 6.375.188l3.586.105L95 108l2-3c2.706-.432 2.706-.432 6.102-.512l3.307-.1 4.216-.076L124 104V69h-2l-1 32-29 1-2 4c-3-1-3-1-5-4-3.004-.512-3.004-.512-6.54-.512l-3.552-.1-4.533-.076L56 101l-1-32h-2Zm-19 2-2 4 1 1c.31 5.261-.322 9.936-1.25 15.125-.999 5.664-.999 5.664 1.125 10.75L35 104c3.709-2.468 3.709-2.468 5.719-6.277.32-3.093-.051-5.552-.657-8.598C38.026 77.949 38.026 77.949 40 74l-2-3h-4Zm51 3v3h7l1-3h-8Z" fill="#86C231"/><path d="M101 88h12l1 4h-13v-4Z" fill="#85C42F"/><path d="M109.25 24.25 111 25c-.539 3.773-1.995 5.682-5 8-2.25-.25-2.25-.25-4-1 .585-4.093 2.628-8.264 7.25-7.75Z" fill="#86C132"/><path d="M67 24c3.773.539 5.682 1.995 8 5-.25 2.25-.25 2.25-1 4-3.773-.539-5.682-1.995-8-5 .25-2.25.25-2.25 1-4Z" fill="#87C032"/><path d="M63 88h12v4H63v-4Z" fill="#85C131"/><path d="M110 44h8c.563 1.938.563 1.938 1 4-1 1-1 1-3.066 1.098l-2.496-.035-2.504-.028L109 49l1-5Z" fill="#87C133"/><path d="M87 16c2.063.438 2.063.438 4 1v8l-5 1c-.027-1.48-.046-2.958-.063-4.438l-.035-2.496C86 17 86 17 87 16Z" fill="#87C132"/><path d="M60.848 43.902 67 44c.563 1.938.563 1.938 1 4-1 1-1 1-2.848 1.098L59 49c-.563-1.938-.563-1.938-1-4 1-1 1-1 2.848-1.098Z" fill="#85C232"/><path d="M103 80h10l1 4h-11v-4Z" fill="#86C132"/><path d="M63 80h10l1 4H63v-4Z" fill="#85C330"/></svg>