<svg xmlns="http://www.w3.org/2000/svg" width="128" height="128"><path d="M76.5 2c5.98 3.452 9.754 8.746 12.5 15 .427 1.738.8 3.49 1.125 5.25l.508 2.703L91 27l1.7-.977c4.49-1.997 9.771-1.893 14.402-.3 4.75 2.496 7.007 5.441 8.585 10.465.756 6.795.955 13.395-1.687 19.812a141.135 141.135 0 0 1-5 5c-.675 2.078-.675 2.078-1 4l1.977.297C116.849 66.473 122.406 68.438 127 74c1.005 3.015 1.103 5.042 1.063 8.188l-.028 2.73L128 87h-4l-.262-2.047c-.854-5.728-.854-5.728-3.988-10.453-3.864-2.108-6.97-3.666-11.438-3.25-2.546.71-2.546.71-5.312 2.75-6.453-.453-6.453-.453-9-3-2.688-.27-5.291-.087-8 0v2l3.125.25C95.527 74.49 99.334 77.705 103 83c1.05 3.15 1.101 5.388 1.063 8.688l-.028 3.011L104 97h7v-6l4-2c1 1 1 1 1.063 4.563L116 97h8v-5h4v10h-24v12l-4.164-.098c-9.698-.474-9.698-.474-18.254 3.028-1.428 2.355-1.428 2.355-2.539 4.836-1.306 2.797-3.008 4.302-5.8 5.636-6.228 1.66-12.978 1.903-19.009-.507-4.024-2.486-5.893-4.116-7.836-8.551-1.32-2.433-1.9-3.194-4.588-4.002-2.707-.257-5.34-.312-8.06-.28l-2.836-.048c-2.304-.036-4.61-.029-6.914-.014v-12H0V92h4v5h8v-7h4c1 1 1 1 1.063 4.063L17 97h7l-.105-2.195C23.613 84.742 23.613 84.742 27 80c4.767-4.56 8.362-7 15-7v-2c-5.404-.538-5.404-.538-10.063 1.563C30 74 30 74 26.375 73.813 23 73 23 73 21 71c-4.953.286-8.809 1.333-13 4-3.02 3.75-3.536 7.27-4 12H0c-.567-10.818-.567-10.818 3-15 4.003-4.003 8.595-5.664 14-7h3c-.352-3.17-1.06-4.058-3.438-6.313C12.409 54.331 11.9 49.828 11.75 44c.15-5.804.782-10.261 4.625-14.813C20.269 25.944 22.907 24.72 28 24.75l2.563-.016c2.572.28 4.217.971 6.437 2.266l.445-2.309C39.415 15.624 42.132 8.197 50.187 3c7.88-4.476 18.054-4.746 26.313-1ZM48 11c-4.479 6.476-5.127 11.361-5 19 13.36 2.044 13.36 2.044 25.563-2.25C70.858 25.16 72.056 23.3 73 20h5l-1.063 2.25c-.986 2.893-1.031 3.965.063 6.75 1.184 1.416 1.184 1.416 4.563 1.063L85 30c.391-7.307-.805-12.55-4.75-18.75-5.015-5.015-9.78-6.906-16.758-7.352C57.41 4.146 52.284 6.716 48 11ZM22 31c-3.471 2.99-4.854 5.056-5.203 9.707-.26 8.141-.26 8.141 3.203 15.293 3.233 2.227 5.132 3.018 9.063 2.938 3.38-1.08 5.366-2.514 7.937-4.938 1.557-3.115 1.267-6.396 1.313-9.813l.087-2.158c.044-3.666-.263-5.808-2.205-8.95C31.892 29.003 27.148 27.938 22 31Zm71 1c-3.042 2.984-3.408 5.592-3.459 9.795l.022 2.142-.061 2.131C89.507 51.023 90.511 53.518 94 57c2.684 2.036 4.003 2 7.438 1.938 4.228-1.113 5.838-2.573 8.562-5.938 1.053-3.16 1.2-5.555 1.25-8.875l.078-3.117c-.446-4.09-2.224-6.535-4.64-9.758-4.796-3.552-9.014-2.262-13.688.75Zm-23.938.438c-3.226 1.646-5.062 1.81-8.624 2-3.355.248-5.16.407-8.126 2.062C50.29 40.354 50.297 43.746 51 48c1.346 3.94 3.317 6.492 6.688 9C62.07 58.323 65.61 58.336 70 57c3.31-2.606 5.464-5.097 7-9 .392-3.403.392-3.403.375-7.063l.086-3.722c-.146-3.276-.146-3.276-2.36-5.149-2.812-1.427-3.482-1.525-6.038.371ZM44 35c-1.356 1.125-1.356 1.125-1.063 4.063L43 42h3v-7h-2Zm38 0v7h3v-6l-3-1ZM43 47l-.48 2.047C41.085 54.53 40.126 57.952 35 61c.015 1.947.015 1.947 1 4 2.815 1.527 2.815 1.527 6.25 2.5l3.453 1.156c3.38.685 3.38.685 6.18-1.379 2.35-2.137 2.35-2.137 2.742-5.215C53.809 58.066 51.884 56.816 49 54c-.971-2.333-1.464-4.514-2-7h-4Zm38 0-1.25 3.75c-1.06 2.89-1.683 4.184-3.938 6.375-2.085 1.814-2.085 1.814-2.374 4.875.312 3.136.312 3.136 2.675 5.281 2.805 2.06 2.805 2.06 6.184 1.375L85.75 67.5c1.15-.36 2.3-.722 3.484-1.094 2.915-1.104 2.915-1.104 3.657-3.562L93 61l-2.313-1.375C86.936 55.961 86.175 52.007 85 47h-4ZM58 62c-.61 5.46-.61 5.46 1.688 10.063C62.617 73.25 64.025 72.99 67 72l3-2c.363-1.977.363-1.977.188-4.125L70 62H58Zm-33 1v5c1.892.681 1.892.681 4 1l2-2v-4h-6Zm72 0 1 5c1.946.59 1.946.59 4 1 1.296-1.066 1.296-1.066 1.063-3.563L103 63h-6Zm-23 9v2l-5 2c1.37 3.161 1.99 3.993 5 6 2.36-4.264 2.36-4.264 3-9l-3-1Zm-21 0-2 1c.53 3.821 1.497 6.062 4 9a90.488 90.488 0 0 0 4-4v-2l-2.438-.875C54 74 54 74 53 72ZM31.062 82.875c-3.727 5.648-3.188 11.384-3.125 17.938l.014 2.677c.012 2.17.03 4.34.049 6.51h8c.089-3.199-.09-5.927-1-9l4 1 1 8h3l.445-2.379c1.805-8.45 4.107-13.72 11.43-18.496L57 88v-1h-6l-.875-2.75c-.89-2.572-1.84-4.863-3.125-7.25-6.066-.569-11.86 1.288-15.938 5.875ZM81 77a651.927 651.927 0 0 0-2 3.875l-1.125 2.18C76.863 84.948 76.863 84.948 77 87h-6l1.5 1.313C74 90 74 90 74 93l-2.5-.5c-6.518-.931-11.355-1.427-16.96 2.246-3.912 3.187-5.684 6.754-6.54 11.629-.346 5.008 1.01 8.632 4 12.625 4.234 3.753 8.394 5.272 14 5 6.078-1.854 10.054-4.815 13.375-10.25 1.438-6.327-.444-12.699-2.375-18.75h4c.482 1.562.96 3.124 1.438 4.688l.808 2.636C83.963 104.87 84.518 107.4 85 110h3l1-8 4-1-1 9h8c.054-3.021.094-6.041.125-9.063l.05-2.568c.052-6.68-.038-12.184-4.925-17.181C90.55 78.025 86.67 76.665 81 77Zm-18 4-2 3 1 3h4l1-4-4-2Z" fill="#86C231"/><path d="M62 95c2.438.188 2.438.188 5 1l.875 1.938c1.06 2.495 1.06 2.495 4.75 3.312L76 102c.688 1.688.688 1.688 1 4a788.291 788.291 0 0 1-3 5c-.387 2.325-.73 4.659-1 7-1.821 1.821-4.307 1.132-6.727 1.137L64 119.125l-2.273.012c-5.6-.01-5.6-.01-6.727-1.137-.534-2.214-.963-4.441-1.402-6.676-.517-2.358-.517-2.358-1.696-4.48C51 105 51 105 51.5 102.813c2.137-2.583 4.275-2.276 7.5-2.813 1.376-1.918 1.376-1.918 2-4l1-1Zm1 6-2 3c-2.125 1.188-2.125 1.188-4 2l2 3v5h10l.438-3.375C70 107 70 107 71 105l-2.438-.875C66 103 66 103 65 101h-2Z" fill="#88C331"/></svg>